<svg width="32" height="32" viewBox="0 0 32 32" fill="none" xmlns="http://www.w3.org/2000/svg">
<rect width="32" height="32" rx="4" fill="#C2410C"/>
<path d="M21.209 13.8457H17.5996V26H13.4297V13.8457H11.1328V11.8359L13.4297 10.7148V9.59375C13.4297 8.29036 13.6484 7.27865 14.0859 6.55859C14.5326 5.82943 15.1569 5.31901 15.959 5.02734C16.7702 4.72656 17.7272 4.57617 18.8301 4.57617C19.6413 4.57617 20.3796 4.64453 21.0449 4.78125C21.7103 4.90885 22.2526 5.05469 22.6719 5.21875L21.6055 8.28125C21.2865 8.18099 20.9401 8.08984 20.5664 8.00781C20.1927 7.92578 19.7643 7.88477 19.2812 7.88477C18.6979 7.88477 18.2695 8.0625 17.9961 8.41797C17.7318 8.76432 17.5996 9.21094 17.5996 9.75781V10.7148H21.209V13.8457Z" fill="white"/>
</svg>
